<svg width="66" height="66" viewBox="0 0 66 66" fill="none" xmlns="http://www.w3.org/2000/svg">
<rect y="29.8486" width="46.3636" height="46.3636" rx="23.1818" transform="rotate(-40.0748 0 29.8486)" fill="white"/>
<path d="M30.5194 25.7059C29.7222 25.6372 29.1316 24.9352 29.2003 24.138C29.269 23.3407 29.971 22.7502 30.7682 22.8189L41.6559 23.7571C42.4531 23.8258 43.0437 24.5277 42.975 25.325L42.0368 36.2126C41.9681 37.0099 41.2661 37.6005 40.4689 37.5318C39.6717 37.4631 39.0811 36.7611 39.1498 35.9639L39.7877 28.5611L25.4645 40.6116C24.8522 41.1267 23.9383 41.048 23.4231 40.4357C22.908 39.8234 22.9867 38.9094 23.599 38.3942L37.9221 26.3438L30.5194 25.7059Z" fill="black"/>
</svg>
